<?xml version="1.0" encoding="UTF-8"?>
<svg xmlns="http://www.w3.org/2000/svg" xmlns:xlink="http://www.w3.org/1999/xlink" width="128px" height="128px" viewBox="0 0 128 128" version="1.1">
<g id="surface1">
<path style=" stroke:none;fill-rule:nonzero;fill:rgb(12.156863%,12.941176%,13.333333%);fill-opacity:1;" d="M 88.425781 93.203125 C 89.976562 97.210938 92.207031 99.277344 95.113281 99.40625 L 95.113281 101.347656 C 92.53125 101.152344 89.074219 101.054688 84.746094 101.054688 C 79.191406 101.054688 75.050781 101.152344 72.335938 101.347656 L 72.335938 99.40625 C 74.792969 99.277344 76.554688 98.972656 77.621094 98.488281 C 78.6875 98.007812 79.222656 97.117188 79.222656 95.824219 C 79.222656 94.722656 78.832031 93.207031 78.058594 91.269531 L 72.144531 75.367188 L 48.683594 75.367188 L 44.710938 85.644531 C 43.417969 89.132812 42.773438 91.785156 42.773438 93.59375 C 42.773438 95.59375 43.46875 97.050781 44.855469 97.957031 C 46.242188 98.859375 48.359375 99.34375 51.207031 99.40625 L 51.207031 101.347656 C 47.523438 101.152344 43.804688 101.054688 40.058594 101.054688 C 37.148438 101.054688 34.726562 101.152344 32.789062 101.347656 L 32.789062 99.40625 C 36.023438 98.632812 38.574219 95.820312 40.449219 90.972656 L 63.226562 32.234375 L 64.777344 32.234375 Z M 71.367188 73.433594 L 60.511719 44.445312 L 49.460938 73.433594 Z M 71.367188 73.433594 "/>
<path style=" stroke:none;fill-rule:nonzero;fill:rgb(100%,100%,100%);fill-opacity:1;" d="M 19.164062 58.210938 L 108.746094 58.210938 L 108.746094 69.730469 L 19.164062 69.730469 L 19.164062 58.210938 "/>
<path style=" stroke:none;fill-rule:nonzero;fill:rgb(12.156863%,12.941176%,13.333333%);fill-opacity:1;" d="M 47.847656 65.574219 L 47.847656 65.53125 L 47.90625 65.53125 C 48.148438 65.53125 48.269531 65.425781 48.269531 65.210938 L 48.269531 62.746094 C 48.269531 62.546875 48.148438 62.445312 47.90625 62.445312 L 47.847656 62.445312 L 47.847656 62.402344 L 50.082031 62.402344 L 50.109375 63.175781 L 50.066406 63.175781 L 50.054688 63.03125 C 50.039062 62.808594 49.988281 62.65625 49.898438 62.570312 C 49.8125 62.488281 49.65625 62.445312 49.429688 62.445312 L 48.714844 62.445312 L 48.714844 63.890625 L 49.832031 63.890625 L 49.832031 63.933594 L 48.714844 63.933594 L 48.714844 65.53125 L 49.539062 65.53125 C 49.699219 65.53125 49.824219 65.515625 49.917969 65.480469 C 50.011719 65.445312 50.082031 65.382812 50.125 65.296875 C 50.167969 65.210938 50.199219 65.09375 50.210938 64.945312 L 50.214844 64.796875 L 50.261719 64.796875 L 50.230469 65.574219 Z M 47.847656 65.574219 "/>
<path style=" stroke:none;fill-rule:nonzero;fill:rgb(12.156863%,12.941176%,13.333333%);fill-opacity:1;" d="M 52.285156 65.574219 L 52.285156 65.53125 L 52.34375 65.53125 C 52.585938 65.53125 52.707031 65.425781 52.707031 65.210938 L 52.707031 62.746094 C 52.707031 62.546875 52.585938 62.445312 52.34375 62.445312 L 52.285156 62.445312 L 52.285156 62.402344 L 53.578125 62.402344 L 53.578125 62.445312 L 53.523438 62.445312 C 53.277344 62.445312 53.15625 62.550781 53.15625 62.765625 L 53.15625 65.53125 L 53.976562 65.53125 C 54.136719 65.53125 54.261719 65.507812 54.355469 65.460938 C 54.449219 65.417969 54.515625 65.335938 54.558594 65.222656 C 54.605469 65.109375 54.632812 64.957031 54.648438 64.765625 L 54.65625 64.621094 L 54.703125 64.621094 L 54.671875 65.574219 Z M 52.285156 65.574219 "/>
<path style=" stroke:none;fill-rule:nonzero;fill:rgb(12.156863%,12.941176%,13.333333%);fill-opacity:1;" d="M 59.402344 65.574219 L 59.402344 65.53125 L 59.453125 65.53125 C 59.699219 65.53125 59.824219 65.425781 59.824219 65.210938 L 59.824219 62.746094 C 59.824219 62.546875 59.699219 62.445312 59.453125 62.445312 L 59.402344 62.445312 L 59.402344 62.402344 L 60.691406 62.402344 L 60.691406 62.445312 L 60.632812 62.445312 C 60.390625 62.445312 60.269531 62.550781 60.269531 62.765625 L 60.269531 63.894531 L 61.710938 63.894531 L 61.710938 62.765625 C 61.710938 62.550781 61.589844 62.445312 61.347656 62.445312 L 61.289062 62.445312 L 61.289062 62.402344 L 62.585938 62.402344 L 62.585938 62.445312 L 62.527344 62.445312 C 62.28125 62.445312 62.160156 62.546875 62.160156 62.746094 L 62.160156 65.210938 C 62.160156 65.425781 62.28125 65.53125 62.527344 65.53125 L 62.585938 65.53125 L 62.585938 65.574219 L 61.289062 65.574219 L 61.289062 65.53125 L 61.347656 65.53125 C 61.589844 65.53125 61.710938 65.425781 61.710938 65.210938 L 61.710938 63.9375 L 60.269531 63.9375 L 60.269531 65.210938 C 60.269531 65.425781 60.390625 65.53125 60.632812 65.53125 L 60.691406 65.53125 L 60.691406 65.574219 Z M 59.402344 65.574219 "/>
<path style=" stroke:none;fill-rule:nonzero;fill:rgb(12.156863%,12.941176%,13.333333%);fill-opacity:1;" d="M 64.59375 65.574219 L 64.59375 65.53125 L 64.652344 65.53125 C 64.890625 65.53125 65.011719 65.425781 65.011719 65.210938 L 65.011719 62.746094 C 65.011719 62.546875 64.890625 62.445312 64.652344 62.445312 L 64.59375 62.445312 L 64.59375 62.402344 L 65.882812 62.402344 L 65.882812 62.445312 L 65.828125 62.445312 C 65.585938 62.445312 65.460938 62.550781 65.460938 62.765625 L 65.460938 65.210938 C 65.460938 65.425781 65.585938 65.53125 65.828125 65.53125 L 65.882812 65.53125 L 65.882812 65.574219 Z M 64.59375 65.574219 "/>
<path style=" stroke:none;fill-rule:nonzero;fill:rgb(12.156863%,12.941176%,13.333333%);fill-opacity:1;" d="M 69.371094 65.617188 C 69.058594 65.617188 68.796875 65.550781 68.585938 65.414062 C 68.378906 65.28125 68.226562 65.089844 68.121094 64.84375 C 68.023438 64.597656 67.972656 64.308594 67.972656 63.980469 C 67.972656 63.648438 68.023438 63.363281 68.121094 63.121094 C 68.226562 62.875 68.382812 62.6875 68.59375 62.550781 C 68.800781 62.414062 69.0625 62.347656 69.375 62.347656 C 69.675781 62.347656 69.925781 62.414062 70.132812 62.550781 C 70.339844 62.6875 70.496094 62.875 70.601562 63.121094 C 70.710938 63.367188 70.769531 63.652344 70.769531 63.980469 C 70.769531 64.3125 70.710938 64.597656 70.601562 64.84375 C 70.496094 65.089844 70.339844 65.28125 70.132812 65.414062 C 69.925781 65.550781 69.671875 65.617188 69.371094 65.617188 Z M 69.371094 65.574219 C 69.691406 65.574219 69.921875 65.449219 70.0625 65.195312 C 70.207031 64.945312 70.277344 64.539062 70.277344 63.980469 C 70.277344 63.425781 70.207031 63.023438 70.0625 62.773438 C 69.921875 62.523438 69.691406 62.394531 69.375 62.394531 C 69.058594 62.394531 68.828125 62.523438 68.683594 62.773438 C 68.535156 63.023438 68.464844 63.425781 68.464844 63.980469 C 68.464844 64.539062 68.535156 64.945312 68.675781 65.195312 C 68.824219 65.449219 69.054688 65.574219 69.371094 65.574219 Z M 69.371094 65.574219 "/>
<path style=" stroke:none;fill-rule:nonzero;fill:rgb(12.156863%,12.941176%,13.333333%);fill-opacity:1;" d="M 74.300781 65.617188 C 73.949219 65.617188 73.675781 65.542969 73.476562 65.386719 C 73.28125 65.234375 73.183594 64.976562 73.183594 64.613281 L 73.183594 62.746094 C 73.183594 62.546875 73.058594 62.445312 72.816406 62.445312 L 72.761719 62.445312 L 72.761719 62.402344 L 74.050781 62.402344 L 74.050781 62.445312 L 73.992188 62.445312 C 73.75 62.445312 73.628906 62.550781 73.628906 62.757812 L 73.628906 64.640625 C 73.628906 64.878906 73.664062 65.066406 73.726562 65.203125 C 73.789062 65.332031 73.878906 65.425781 73.988281 65.480469 C 74.101562 65.53125 74.230469 65.554688 74.371094 65.554688 C 74.671875 65.554688 74.910156 65.476562 75.085938 65.320312 C 75.261719 65.160156 75.347656 64.9375 75.347656 64.65625 L 75.347656 62.746094 C 75.347656 62.546875 75.226562 62.445312 74.984375 62.445312 L 74.925781 62.445312 L 74.925781 62.402344 L 75.8125 62.402344 L 75.8125 62.445312 L 75.757812 62.445312 C 75.511719 62.445312 75.390625 62.550781 75.390625 62.765625 L 75.390625 64.667969 C 75.390625 64.964844 75.296875 65.195312 75.109375 65.367188 C 74.921875 65.535156 74.65625 65.617188 74.300781 65.617188 Z M 74.300781 65.617188 "/>
<path style=" stroke:none;fill-rule:nonzero;fill:rgb(12.156863%,12.941176%,13.333333%);fill-opacity:1;" d="M 77.722656 65.574219 L 77.722656 65.53125 L 77.78125 65.53125 C 78.019531 65.53125 78.140625 65.425781 78.140625 65.210938 L 78.140625 62.746094 C 78.140625 62.546875 78.019531 62.445312 77.78125 62.445312 L 77.722656 62.445312 L 77.722656 62.402344 L 79.011719 62.402344 L 79.011719 62.445312 L 78.957031 62.445312 C 78.710938 62.445312 78.589844 62.550781 78.589844 62.765625 L 78.589844 65.53125 L 79.410156 65.53125 C 79.570312 65.53125 79.695312 65.507812 79.789062 65.460938 C 79.882812 65.417969 79.949219 65.335938 79.992188 65.222656 C 80.039062 65.109375 80.070312 64.957031 80.082031 64.765625 L 80.089844 64.621094 L 80.136719 64.621094 L 80.105469 65.574219 Z M 77.722656 65.574219 "/>
</g>
</svg>
